<svg fill="none" xmlns="http://www.w3.org/2000/svg" viewBox="80 80 360.7 400">
    <path fill-rule="evenodd" clip-rule="evenodd" d="M86.3223 330.026L214.815 168.822L295.97 226.253L299.686 232.17C257.77 250.346 228.423 292.117 228.423 340.691C228.423 405.987 281.426 458.99 346.708 458.99C356.976 458.99 366.942 457.679 376.441 455.199C347.846 471.036 314.971 480 280.009 480C186.896 480 108.561 416.262 86.3223 330.026ZM379.892 340.691C407.137 340.691 429.259 362.834 429.259 390.079C429.259 417.325 407.137 439.433 379.892 439.433C352.643 439.433 330.521 417.325 330.521 390.079C330.521 362.834 352.643 340.691 379.892 340.691Z" fill="url(#paint0_linear_3991_2135)"></path>
    <path fill-rule="evenodd" clip-rule="evenodd" d="M118.105 397.06C94.0762 364.252 80 323.756 80 280C80 169.602 169.623 80 280.011 80C335.284 80 385.35 102.462 421.563 138.778L436.585 156.103C441.24 161.488 442.023 169.212 438.544 175.412C436.053 179.841 432.939 185.403 429.549 191.426C410.218 225.899 373.789 247.228 334.282 247.228H265.357C200.397 247.228 143.412 290.558 126.048 353.162C122.051 367.582 119.376 382.25 118.105 397.06Z" fill="#5FD04F"></path>
    <defs>
        <linearGradient id="paint0_linear_3991_2135" x1="167.767" y1="282.663" x2="201.279" y2="325.749" gradientUnits="userSpaceOnUse">
            <stop stop-color="#469F39"></stop>
            <stop offset="1" stop-color="#4AB93A"></stop>
        </linearGradient>
    </defs>
</svg>